<svg width="250" height="30" xmlns="http://www.w3.org/2000/svg" version="1.1" xml:space="preserve">
 <desc>Created with Fabric.js 5.2.4</desc>

 <g>
  <title>Layer 1</title>
  <g transform="matrix(0 0 0 0 0 0)" id="30ea5665-540a-4d17-af94-5d277972b383"/>
  <g transform="matrix(0.14155 0 0 0.14155 -46.6091 620.672)" id="svg_3">
   <path vector-effect="non-scaling-stroke" d="m410.53942,-4223.27522l0,0q-20.8,0 -37.5,-9.2l0,0l0,0q-16.7,-9.2 -26.2,-25.5l0,0l0,0q-9.5,-16.3 -9.5,-36.5l0,0l0,0q0,-20.2 9.5,-36.5l0,0l0,0q9.5,-16.3 26.3,-25.5l0,0l0,0q16.8,-9.2 37.6,-9.2l0,0l0,0q15.6,0 28.8,5.2l0,0l0,0q13.2,5.2 22.4,15.2l0,0l-9.4,9.4l0,0q-16.4,-16.6 -41.4,-16.6l0,0l0,0q-16.6,0 -30.2,7.6l0,0l0,0q-13.6,7.6 -21.3,20.8l0,0l0,0q-7.7,13.2 -7.7,29.6l0,0l0,0q0,16.4 7.7,29.6l0,0l0,0q7.7,13.2 21.3,20.8l0,0l0,0q13.6,7.6 30.2,7.6l0,0l0,0q25.2,0 41.4,-16.8l0,0l9.4,9.4l0,0q-9.2,10 -22.5,15.3l0,0l0,0q-13.3,5.3 -28.9,5.3l0,0zm133.6,-107.2l0,0q19.8,0 31.5,11.5l0,0l0,0q11.7,11.5 11.7,33.5l0,0l0,61l-14.2,0l0,-59.6l0,0q0,-16.4 -8.2,-25l0,0l0,0q-8.2,-8.6 -23.4,-8.6l0,0l0,0q-17,0 -26.9,10.1l0,0l0,0q-9.9,10.1 -9.9,27.9l0,0l0,55.2l-14.2,0l0,-148.4l14.2,0l0,61.6l0,0q5.8,-9.2 16,-14.2l0,0l0,0q10.2,-5 23.4,-5l0,0zm118.6,0l0,0q20.6,0 31.6,10.3l0,0l0,0q11,10.3 11,30.5l0,0l0,65.2l-13.6,0l0,-16.4l0,0q-4.8,8.2 -14.1,12.8l0,0l0,0q-9.3,4.6 -22.1,4.6l0,0l0,0q-17.6,0 -28,-8.4l0,0l0,0q-10.4,-8.4 -10.4,-22.2l0,0l0,0q0,-13.4 9.7,-21.6l0,0l0,0q9.7,-8.2 30.9,-8.2l0,0l33.4,0l0,-6.4l0,0q0,-13.6 -7.6,-20.7l0,0l0,0q-7.6,-7.1 -22.2,-7.1l0,0l0,0q-10,0 -19.2,3.3l0,0l0,0q-9.2,3.3 -15.8,9.1l0,0l-6.4,-10.6l0,0q8,-6.8 19.2,-10.5l0,0l0,0q11.2,-3.7 23.6,-3.7l0,0zm-5,95.8l0,0q12,0 20.6,-5.5l0,0l0,0q8.6,-5.5 12.8,-15.9l0,0l0,-17.2l-33,0l0,0q-27,0 -27,18.8l0,0l0,0q0,9.2 7,14.5l0,0l0,0q7,5.3 19.6,5.3l0,0zm139.8,-95.8l0,0q19.8,0 31.5,11.5l0,0l0,0q11.7,11.5 11.7,33.5l0,0l0,61l-14.2,0l0,-59.6l0,0q0,-16.4 -8.2,-25l0,0l0,0q-8.2,-8.6 -23.4,-8.6l0,0l0,0q-17,0 -26.9,10.1l0,0l0,0q-9.9,10.1 -9.9,27.9l0,0l0,55.2l-14.2,0l0,-105.2l13.6,0l0,19.4l0,0q5.8,-9.6 16.1,-14.9l0,0l0,0q10.3,-5.3 23.9,-5.3l0,0zm163.6,-42.4l14.2,0l0,148.4l-13.6,0l0,-20.8l0,0q-6.4,10.6 -16.9,16.2l0,0l0,0q-10.5,5.6 -23.7,5.6l0,0l0,0q-14.8,0 -26.8,-6.8l0,0l0,0q-12,-6.8 -18.8,-19l0,0l0,0q-6.8,-12.2 -6.8,-27.8l0,0l0,0q0,-15.6 6.8,-27.8l0,0l0,0q6.8,-12.2 18.8,-18.9l0,0l0,0q12,-6.7 26.8,-6.7l0,0l0,0q12.8,0 23.1,5.3l0,0l0,0q10.3,5.3 16.9,15.5l0,0l0,-63.2zm-38.8,136.8l0,0q11,0 19.9,-5.1l0,0l0,0q8.9,-5.1 14,-14.5l0,0l0,0q5.1,-9.4 5.1,-21.4l0,0l0,0q0,-12 -5.1,-21.4l0,0l0,0q-5.1,-9.4 -14,-14.5l0,0l0,0q-8.9,-5.1 -19.9,-5.1l0,0l0,0q-11.2,0 -20.1,5.1l0,0l0,0q-8.9,5.1 -14,14.5l0,0l0,0q-5.1,9.4 -5.1,21.4l0,0l0,0q0,12 5.1,21.4l0,0l0,0q5.1,9.4 14,14.5l0,0l0,0q8.9,5.1 20.1,5.1l0,0zm92.6,11.6l0,-148.4l14.2,0l0,148.4l-14.2,0zm145.6,-52.6l-0.2,4.4l-88,0l0,0q1.2,16.4 12.6,26.5l0,0l0,0q11.4,10.1 28.8,10.1l0,0l0,0q9.8,0 18,-3.5l0,0l0,0q8.2,-3.5 14.2,-10.3l0,0l8,9.2l0,0q-7,8.4 -17.5,12.8l0,0l0,0q-10.5,4.4 -23.1,4.4l0,0l0,0q-16.2,0 -28.7,-6.9l0,0l0,0q-12.5,-6.9 -19.5,-19.1l0,0l0,0q-7,-12.2 -7,-27.6l0,0l0,0q0,-15.4 6.7,-27.6l0,0l0,0q6.7,-12.2 18.4,-19l0,0l0,0q11.7,-6.8 26.3,-6.8l0,0l0,0q14.6,0 26.2,6.8l0,0l0,0q11.6,6.8 18.2,18.9l0,0l0,0q6.6,12.1 6.6,27.7l0,0zm-51,-41.2l0,0q-15.2,0 -25.5,9.7l0,0l0,0q-10.3,9.7 -11.7,25.3l0,0l74.6,0l0,0q-1.4,-15.6 -11.7,-25.3l0,0l0,0q-10.3,-9.7 -25.7,-9.7l0,0zm93.6,9.2l0,0q5,-10.6 14.9,-16l0,0l0,0q9.9,-5.4 24.5,-5.4l0,0l0,13.8l-3.4,-0.2l0,0q-16.6,0 -26,10.2l0,0l0,0q-9.4,10.2 -9.4,28.6l0,0l0,53.6l-14.2,0l0,-105.2l13.6,0l0,20.6zm224.4,-55.4l14.6,0l0,140l-12.2,0l-90,-113.6l0,113.6l-14.8,0l0,-140l12.2,0l90.2,113.6l0,-113.6zm141,34.8l13.6,0l0,92.4l0,0q0,26.8 -13.1,39.7l0,0l0,0q-13.1,12.9 -39.5,12.9l0,0l0,0q-14.6,0 -27.7,-4.3l0,0l0,0q-13.1,-4.3 -21.3,-11.9l0,0l7.2,-10.8l0,0q7.6,6.8 18.5,10.6l0,0l0,0q10.9,3.8 22.9,3.8l0,0l0,0q20,0 29.4,-9.3l0,0l0,0q9.4,-9.3 9.4,-28.9l0,0l0,-13.4l0,0q-6.6,10 -17.3,15.2l0,0l0,0q-10.7,5.2 -23.7,5.2l0,0l0,0q-14.8,0 -26.9,-6.5l0,0l0,0q-12.1,-6.5 -19,-18.2l0,0l0,0q-6.9,-11.7 -6.9,-26.5l0,0l0,0q0,-14.8 6.9,-26.4l0,0l0,0q6.9,-11.6 18.9,-18l0,0l0,0q12,-6.4 27,-6.4l0,0l0,0q13.4,0 24.2,5.4l0,0l0,0q10.8,5.4 17.4,15.6l0,0l0,-20.2zm-40.2,88.6l0,0q11.4,0 20.6,-4.9l0,0l0,0q9.2,-4.9 14.3,-13.7l0,0l0,0q5.1,-8.8 5.1,-20l0,0l0,0q0,-11.2 -5.1,-19.9l0,0l0,0q-5.1,-8.7 -14.2,-13.6l0,0l0,0q-9.1,-4.9 -20.7,-4.9l0,0l0,0q-11.4,0 -20.5,4.8l0,0l0,0q-9.1,4.8 -14.2,13.6l0,0l0,0q-5.1,8.8 -5.1,20l0,0l0,0q0,11.2 5.1,20l0,0l0,0q5.1,8.8 14.2,13.7l0,0l0,0q9.1,4.9 20.5,4.9l0,0zm174.2,-88.6l14.2,0l0,105.2l-13.6,0l0,-19.2l0,0q-5.6,9.6 -15.4,14.9l0,0l0,0q-9.8,5.3 -22.4,5.3l0,0l0,0q-20.6,0 -32.5,-11.5l0,0l0,0q-11.9,-11.5 -11.9,-33.7l0,0l0,-61l14.2,0l0,59.6l0,0q0,16.6 8.2,25.2l0,0l0,0q8.2,8.6 23.4,8.6l0,0l0,0q16.6,0 26.2,-10.1l0,0l0,0q9.6,-10.1 9.6,-28.1l0,0l0,-55.2zm128.4,0l14,0l-52.6,117.8l0,0q-6.4,14.8 -14.8,21l0,0l0,0q-8.4,6.2 -20.2,6.2l0,0l0,0q-7.6,0 -14.2,-2.4l0,0l0,0q-6.6,-2.4 -11.4,-7.2l0,0l6.6,-10.6l0,0q8,8 19.2,8l0,0l0,0q7.2,0 12.3,-4l0,0l0,0q5.1,-4 9.5,-13.6l0,0l4.6,-10.2l-47,-105l14.8,0l39.6,89.4l39.6,-89.4zm125.8,52.6l-0.2,4.4l-88,0l0,0q1.2,16.4 12.6,26.5l0,0l0,0q11.4,10.1 28.8,10.1l0,0l0,0q9.8,0 18,-3.5l0,0l0,0q8.2,-3.5 14.2,-10.3l0,0l8,9.2l0,0q-7,8.4 -17.5,12.8l0,0l0,0q-10.5,4.4 -23.1,4.4l0,0l0,0q-16.2,0 -28.7,-6.9l0,0l0,0q-12.5,-6.9 -19.5,-19.1l0,0l0,0q-7,-12.2 -7,-27.6l0,0l0,0q0,-15.4 6.7,-27.6l0,0l0,0q6.7,-12.2 18.4,-19l0,0l0,0q11.7,-6.8 26.3,-6.8l0,0l0,0q14.6,0 26.2,6.8l0,0l0,0q11.6,6.8 18.2,18.9l0,0l0,0q6.6,12.1 6.6,27.7l0,0zm-51,-41.2l0,0q-15.2,0 -25.5,9.7l0,0l0,0q-10.3,9.7 -11.7,25.3l0,0l74.6,0l0,0q-1.4,-15.6 -11.7,-25.3l0,0l0,0q-10.3,-9.7 -25.7,-9.7l0,0zm133.6,-12.2l0,0q19.8,0 31.5,11.5l0,0l0,0q11.7,11.5 11.7,33.5l0,0l0,61l-14.2,0l0,-59.6l0,0q0,-16.4 -8.2,-25l0,0l0,0q-8.2,-8.6 -23.4,-8.6l0,0l0,0q-17,0 -26.9,10.1l0,0l0,0q-9.9,10.1 -9.9,27.9l0,0l0,55.2l-14.2,0l0,-105.2l13.6,0l0,19.4l0,0q5.8,-9.6 16.1,-14.9l0,0l0,0q10.3,-5.3 23.9,-5.3l0,0z" stroke-linecap=" butt" stroke=" rgb(0,0,0)" stroke-width="0" stroke-dasharray=" none" stroke-dashoffset="0" stroke-linejoin=" miter" stroke-miterlimit="4" fill=" rgb(227,178,0)" fill-rule=" nonzero" id="svg_4"/>
  </g>
 </g>
</svg>