<?xml version="1.0" standalone="no"?>
<!DOCTYPE svg PUBLIC "-//W3C//DTD SVG 1.0//EN" "http://www.w3.org/TR/2001/REC-SVG-20010904/DTD/svg10.dtd">
<svg xmlns="http://www.w3.org/2000/svg" xmlns:xlink="http://www.w3.org/1999/xlink" id="body_1" width="1318" height="190">

<g transform="matrix(0.5410023 0 0 0.5410023 523.32166 54.10023)">
	<g>
		<g transform="matrix(1 0 0 1 -632.9998 169.1)">
            <path d="M83.6 1.2C 69.73334 1.2 57.233337 -1.8666667 46.1 -8C 34.966667 -14.133334 26.233334 -22.633335 19.9 -33.5C 13.566667 -44.36667 10.4 -56.533333 10.4 -70C 10.4 -83.46667 13.566667 -95.63333 19.9 -106.5C 26.233334 -117.36667 35 -125.86667 46.2 -132C 57.4 -138.13333 69.933334 -141.2 83.8 -141.2C 94.200005 -141.2 103.8 -139.46667 112.6 -136C 121.4 -132.53334 128.86667 -127.466675 135 -120.8L135 -120.8L125.6 -111.4C 114.66667 -122.466675 100.86667 -128 84.2 -128C 73.13333 -128 63.066666 -125.466675 54 -120.4C 44.933334 -115.33334 37.833336 -108.40001 32.7 -99.6C 27.56667 -90.8 25.000002 -80.933334 25 -70C 25.000002 -59.066666 27.56667 -49.2 32.7 -40.4C 37.833336 -31.600002 44.933334 -24.666668 54 -19.6C 63.066666 -14.533334 73.13333 -12 84.2 -12C 101 -12 114.8 -17.6 125.6 -28.8L125.6 -28.8L135 -19.4C 128.86667 -12.733334 121.36667 -7.633333 112.5 -4.1C 103.63333 -0.5666666 94 1.2 83.6 1.2zM217.2 -106C 230.4 -106.00001 240.9 -102.16667 248.7 -94.5C 256.5 -86.833336 260.40002 -75.66667 260.4 -61L260.4 -61L260.4 0L246.2 0L246.2 -59.6C 246.2 -70.53333 243.46667 -78.86667 238 -84.6C 232.53336 -90.33333 224.73335 -93.2 214.6 -93.2C 203.26668 -93.2 194.3 -89.83333 187.7 -83.1C 181.1 -76.36667 177.80002 -67.066666 177.8 -55.2L177.8 -55.2L177.8 0L163.6 0L163.6 -148.4L177.8 -148.4L177.8 -86.8C 181.66669 -92.933334 187.00002 -97.66667 193.8 -101C 200.6 -104.33334 208.4 -106.00001 217.2 -106zM335.8 -106C 349.53333 -106.00001 360.06668 -102.56667 367.4 -95.7C 374.73334 -88.833336 378.4 -78.66667 378.4 -65.2L378.4 -65.2L378.4 0L364.8 0L364.8 -16.4C 361.6 -10.933333 356.90002 -6.666667 350.7 -3.6C 344.5 -0.53333336 337.13336 1 328.6 1C 316.8667 1 307.53336 -1.8 300.6 -7.4C 293.6667 -13 290.2 -20.400002 290.2 -29.6C 290.2 -38.533333 293.43335 -45.733337 299.9 -51.2C 306.36667 -56.66667 316.6667 -59.4 330.8 -59.4L330.8 -59.4L364.2 -59.4L364.2 -65.8C 364.2 -74.86667 361.6667 -81.76667 356.6 -86.5C 351.53333 -91.23334 344.13333 -93.600006 334.4 -93.6C 327.73334 -93.600006 321.33334 -92.5 315.2 -90.3C 309.06668 -88.100006 303.8 -85.066666 299.4 -81.2L299.4 -81.2L293 -91.8C 298.33334 -96.33334 304.73334 -99.83334 312.2 -102.3C 319.6667 -104.76668 327.53333 -106.00001 335.8 -106zM330.8 -10.2C 338.8 -10.200001 345.66666 -12.033334 351.4 -15.7C 357.13333 -19.366669 361.40002 -24.666668 364.2 -31.6L364.2 -31.6L364.2 -48.8L331.2 -48.8C 313.2 -48.8 304.2 -42.533333 304.2 -30C 304.2 -23.866667 306.53336 -19.033333 311.2 -15.5C 315.8667 -11.966667 322.40002 -10.200001 330.8 -10.2zM470.6 -106C 483.80002 -106.00001 494.30002 -102.16667 502.1 -94.5C 509.9 -86.833336 513.8 -75.66667 513.8 -61L513.8 -61L513.8 0L499.6 0L499.6 -59.6C 499.60004 -70.53333 496.8667 -78.86667 491.4 -84.6C 485.93335 -90.33333 478.13336 -93.2 468 -93.2C 456.6667 -93.2 447.7 -89.83333 441.1 -83.1C 434.5 -76.36667 431.2 -67.066666 431.2 -55.2L431.2 -55.2L431.2 0L417 0L417 -105.2L430.6 -105.2L430.6 -85.8C 434.46667 -92.200005 439.83337 -97.16667 446.7 -100.7C 453.5667 -104.23334 461.53336 -106.00001 470.6 -106zM634.2 -148.4L648.4 -148.4L648.4 0L634.8 0L634.8 -20.8C 630.5333 -13.733334 624.9 -8.333334 617.9 -4.6C 610.9 -0.8666666 603 1 594.2 1C 584.3334 1 575.4 -1.2666667 567.4 -5.8C 559.4 -10.333334 553.13336 -16.666668 548.6 -24.8C 544.06665 -32.933334 541.80005 -42.2 541.8 -52.6C 541.80005 -63 544.06665 -72.26667 548.6 -80.4C 553.13336 -88.53333 559.4 -94.833336 567.4 -99.3C 575.4 -103.76668 584.3334 -106.00001 594.2 -106C 602.7334 -106.00001 610.43335 -104.23334 617.3 -100.7C 624.1666 -97.16667 629.8 -92 634.2 -85.2L634.2 -85.2L634.2 -148.4zM595.4 -11.6C 602.7334 -11.6 609.3667 -13.300001 615.3 -16.7C 621.2334 -20.1 625.9 -24.933334 629.3 -31.2C 632.7 -37.466667 634.4 -44.6 634.4 -52.6C 634.4 -60.6 632.7 -67.73334 629.3 -74C 625.9 -80.26667 621.2334 -85.100006 615.3 -88.5C 609.3667 -91.9 602.7334 -93.600006 595.4 -93.6C 587.93335 -93.600006 581.23334 -91.9 575.3 -88.5C 569.3667 -85.100006 564.7001 -80.26667 561.3 -74C 557.9 -67.73334 556.2 -60.6 556.2 -52.6C 556.2 -44.6 557.9 -37.466667 561.3 -31.2C 564.7001 -24.933334 569.3667 -20.1 575.3 -16.7C 581.23334 -13.300001 587.93335 -11.6 595.4 -11.6zM688 0L688 -148.4L702.2 -148.4L702.2 0L688 0zM833.6 -52.6L833.4 -48.2L745.4 -48.2C 746.2 -37.26667 750.4 -28.433334 758 -21.7C 765.60004 -14.966667 775.2 -11.6 786.8 -11.6C 793.3333 -11.6 799.3333 -12.766667 804.8 -15.1C 810.26666 -17.433334 815 -20.866669 819 -25.4L819 -25.4L827 -16.2C 822.3334 -10.6 816.5 -6.333334 809.5 -3.4C 802.5 -0.46666676 794.80005 1 786.4 1C 775.60004 1 766.0333 -1.3 757.7 -5.9C 749.3667 -10.5 742.8667 -16.866669 738.2 -25C 733.5333 -33.133335 731.2 -42.333336 731.2 -52.6C 731.2 -62.86667 733.43335 -72.066666 737.9 -80.2C 742.3667 -88.333336 748.5 -94.66667 756.3 -99.2C 764.1 -103.73334 772.8667 -106.00001 782.6 -106C 792.3334 -106.00001 801.06665 -103.73334 808.8 -99.2C 816.5333 -94.66667 822.60004 -88.36667 827 -80.3C 831.4 -72.23334 833.6 -63 833.6 -52.6zM782.6 -93.8C 772.4667 -93.8 763.9667 -90.566666 757.1 -84.1C 750.23334 -77.63333 746.3334 -69.200005 745.4 -58.8L745.4 -58.8L820 -58.8C 819.06665 -69.200005 815.1667 -77.63333 808.3 -84.1C 801.43335 -90.566666 792.8667 -93.8 782.6 -93.8zM876.2 -84.6C 879.5333 -91.66667 884.5 -97 891.1 -100.6C 897.7 -104.200005 905.8667 -106.00001 915.6 -106L915.6 -106L915.6 -92.2L912.2 -92.4C 901.1333 -92.4 892.4667 -89 886.2 -82.2C 879.93335 -75.4 876.8 -65.86667 876.8 -53.6L876.8 -53.6L876.8 0L862.6 0L862.6 -105.2L876.2 -105.2L876.2 -84.6zM1100.6 -140L1115.2 -140L1115.2 0L1103 0L1013 -113.6L1013 0L998.2 0L998.2 -140L1010.4 -140L1100.6 -26.4L1100.6 -140zM1241.6 -105.2L1255.2 -105.2L1255.2 -12.8C 1255.2 5.066667 1250.8333 18.300001 1242.1 26.9C 1233.3667 35.5 1220.2001 39.8 1202.6 39.8C 1192.8667 39.8 1183.6333 38.36667 1174.9 35.5C 1166.1667 32.633335 1159.0667 28.666668 1153.6 23.6L1153.6 23.6L1160.8 12.8C 1165.8667 17.333334 1172.0334 20.866669 1179.3 23.4C 1186.5667 25.933334 1194.2 27.200003 1202.2 27.2C 1215.5333 27.200003 1225.3333 24.100002 1231.6 17.9C 1237.8667 11.700001 1241 2.0666668 1241 -11L1241 -11L1241 -24.4C 1236.6001 -17.733334 1230.8334 -12.666667 1223.7 -9.2C 1216.5667 -5.7333336 1208.6667 -4 1200 -4C 1190.1333 -4 1181.1666 -6.166667 1173.1 -10.5C 1165.0333 -14.833334 1158.7 -20.900002 1154.1 -28.7C 1149.5 -36.5 1147.2 -45.333336 1147.2 -55.2C 1147.2 -65.066666 1149.5 -73.86667 1154.1 -81.6C 1158.7 -89.33333 1165 -95.33333 1173 -99.6C 1181 -103.86667 1190 -106.00001 1200 -106C 1208.9333 -106.00001 1217 -104.200005 1224.2 -100.6C 1231.4 -97 1237.2001 -91.8 1241.6 -85L1241.6 -85L1241.6 -105.2zM1201.4 -16.6C 1209 -16.600002 1215.8667 -18.233334 1222 -21.5C 1228.1333 -24.766666 1232.9 -29.333334 1236.3 -35.2C 1239.7001 -41.066666 1241.4 -47.733337 1241.4 -55.2C 1241.4 -62.66667 1239.7001 -69.3 1236.3 -75.1C 1232.9 -80.9 1228.1666 -85.433334 1222.1 -88.7C 1216.0333 -91.96667 1209.1333 -93.600006 1201.4 -93.6C 1193.8 -93.600006 1186.9668 -92 1180.9 -88.8C 1174.8335 -85.600006 1170.1001 -81.066666 1166.7 -75.2C 1163.3 -69.333336 1161.6001 -62.66667 1161.6 -55.2C 1161.6001 -47.733337 1163.3 -41.066666 1166.7 -35.2C 1170.1001 -29.333334 1174.8335 -24.766666 1180.9 -21.5C 1186.9668 -18.233334 1193.8 -16.600002 1201.4 -16.6zM1375.6 -105.2L1389.8 -105.2L1389.8 0L1376.2 0L1376.2 -19.2C 1372.4667 -12.800001 1367.3334 -7.833334 1360.8 -4.3C 1354.2667 -0.7666667 1346.8 1 1338.4 1C 1324.6667 1 1313.8334 -2.8333333 1305.9 -10.5C 1297.9667 -18.166668 1294 -29.400002 1294 -44.2L1294 -44.2L1294 -105.2L1308.2 -105.2L1308.2 -45.6C 1308.2 -34.533333 1310.9333 -26.133335 1316.4 -20.4C 1321.8667 -14.666667 1329.6667 -11.8 1339.8 -11.8C 1350.8667 -11.8 1359.6001 -15.166667 1366 -21.9C 1372.4 -28.633335 1375.6 -38 1375.6 -50L1375.6 -50L1375.6 -105.2zM1504 -105.2L1518 -105.2L1465.4 12.6C 1461.1333 22.466667 1456.2 29.466667 1450.6 33.6C 1445 37.733334 1438.2667 39.8 1430.4 39.8C 1425.3334 39.8 1420.6001 39 1416.2 37.4C 1411.8 35.800003 1408 33.4 1404.8 30.2L1404.8 30.2L1411.4 19.6C 1416.7334 24.933334 1423.1334 27.600002 1430.6 27.6C 1435.4 27.600002 1439.5 26.266668 1442.9 23.6C 1446.3 20.933334 1449.4668 16.400002 1452.4 10L1452.4 10L1457 -0.2L1410 -105.2L1424.8 -105.2L1464.4 -15.8L1504 -105.2zM1629.8 -52.6L1629.6 -48.2L1541.6 -48.2C 1542.4001 -37.26667 1546.6001 -28.433334 1554.2 -21.7C 1561.8 -14.966667 1571.4001 -11.6 1583 -11.6C 1589.5334 -11.6 1595.5334 -12.766667 1601 -15.1C 1606.4668 -17.433334 1611.2001 -20.866669 1615.2 -25.4L1615.2 -25.4L1623.2 -16.2C 1618.5333 -10.6 1612.7 -6.333334 1605.7 -3.4C 1598.7 -0.46666676 1591 1 1582.6 1C 1571.8 1 1562.2334 -1.3 1553.9 -5.9C 1545.5668 -10.5 1539.0668 -16.866669 1534.4 -25C 1529.7334 -33.133335 1527.4001 -42.333336 1527.4 -52.6C 1527.4001 -62.86667 1529.6334 -72.066666 1534.1 -80.2C 1538.5668 -88.333336 1544.7001 -94.66667 1552.5 -99.2C 1560.3 -103.73334 1569.0668 -106.00001 1578.8 -106C 1588.5334 -106.00001 1597.2667 -103.73334 1605 -99.2C 1612.7334 -94.66667 1618.8 -88.36667 1623.2 -80.3C 1627.6001 -72.23334 1629.8002 -63 1629.8 -52.6zM1578.8 -93.8C 1568.6667 -93.8 1560.1667 -90.566666 1553.3 -84.1C 1546.4335 -77.63333 1542.5334 -69.200005 1541.6 -58.8L1541.6 -58.8L1616.2 -58.8C 1615.2668 -69.200005 1611.3668 -77.63333 1604.5 -84.1C 1597.6334 -90.566666 1589.0668 -93.8 1578.8 -93.8zM1712.4 -106C 1725.6001 -106.00001 1736.1001 -102.16667 1743.9 -94.5C 1751.7001 -86.833336 1755.6001 -75.66667 1755.6 -61L1755.6 -61L1755.6 0L1741.4 0L1741.4 -59.6C 1741.4 -70.53333 1738.6667 -78.86667 1733.2 -84.6C 1727.7334 -90.33333 1719.9333 -93.2 1709.8 -93.2C 1698.4668 -93.2 1689.5001 -89.83333 1682.9 -83.1C 1676.3 -76.36667 1673 -67.066666 1673 -55.2L1673 -55.2L1673 0L1658.8 0L1658.8 -105.2L1672.4 -105.2L1672.4 -85.8C 1676.2667 -92.200005 1681.6334 -97.16667 1688.5 -100.7C 1695.3668 -104.23334 1703.3335 -106.00001 1712.4 -106z" stroke="none" fill="#E3B200" fill-rule="nonzero" />
		</g>
	</g>
</g>
</svg>